Coordinates
version=1
nRows=30
nColumns=19
inDegrees=yes

Units are S.I. units (second, meters, Newtons, ...)
If the header above contains a line with 'inDegrees', this indicates whether rotational values are in degrees (yes) or radians (no).

endheader
time	pelvis_to_ground_rx	pelvis_to_ground_ry	pelvis_to_ground_rz	pelvis_to_ground_tx	pelvis_to_ground_ty	pelvis_to_ground_tz	left_hip_abduction	left_hip_rotation	left_hip_flexion	left_knee_flexion	left_ankle_flexion	left_subtalar_angle	right_hip_abduction	right_hip_rotation	right_hip_flexion	right_knee_flexion	right_ankle_flexion	right_subtalar_angle
      0.99000000	     86.80939131	     12.50577059	     -4.51521494	     -0.79154444	     -0.75036148	      0.71749507	      0.37687671	      2.08740821	      8.86154553	    -61.83689199	     -5.95822726	     -3.26890224	      7.10031700	      2.64667483	     22.24540344	    -19.40692647	     -0.29422947	     -8.40488352
      1.00000000	     85.96228988	     11.87646313	     -4.90111827	     -0.77961362	     -0.75163908	      0.71919025	      0.97105087	      3.53302919	     11.06956061	    -64.47466060	     -6.70359249	     -4.09354412	      8.28233465	      2.95279880	     21.26160627	    -18.37843383	      0.18805611	     -7.86321260
      1.01000000	     85.22072228	     11.22577499	     -5.15241945	     -0.76792002	     -0.75293121	      0.72098743	      1.39774316	      4.96335950	     13.17674901	    -66.88941448	     -6.67766465	     -4.38603021	      9.31926420	      3.27804307	     20.02529687	    -17.15122691	      0.24646348	     -7.68495882
      1.02000000	     84.66676174	     10.57202829	     -5.51301430	     -0.75651786	     -0.75418753	      0.72289571	      1.53246233	      6.28712490	     15.42782486	    -69.04452235	     -6.50348421	     -4.79885323	     10.12578338	      3.59970696	     18.83896680	    -15.82679066	      0.26704095	     -7.39762296
      1.03000000	     84.29313927	      9.95087918	     -5.90789044	     -0.74538413	     -0.75538290	      0.72481388	      1.39278802	      7.44039587	     17.74460651	    -70.92215293	     -5.82037966	     -5.86458980	     10.74425224	      3.73864909	     17.70030546	    -14.52648816	      0.21911998	     -6.64026173
      1.04000000	     84.02438636	      9.34114581	     -6.17884103	     -0.73443121	     -0.75656554	      0.72671593	      1.10804895	      8.50129853	     19.96132212	    -72.49245869	     -5.52871914	     -6.28533576	     11.19013575	      4.11402089	     16.35650136	    -13.11302885	      0.24090226	     -6.34689458
      1.05000000	     83.92061306	      8.75810670	     -6.48861120	     -0.72372775	     -0.75763310	      0.72850026	      0.57941604	      9.37924107	     22.24306275	    -73.76601174	     -4.42633333	     -7.50098148	     11.46680952	      4.31748594	     15.14658926	    -11.87288118	      0.13696304	     -5.65680482
      1.06000000	     83.91456617	      8.15136484	     -6.72936351	     -0.71322022	     -0.75859612	      0.73013869	     -0.08193148	     10.19587310	     24.47444354	    -74.72904682	     -3.60822775	     -8.43978164	     11.59351324	      4.71300906	     13.89905920	    -10.72632820	      0.10865642	     -5.18036042
      1.07000000	     83.97851862	      7.58289541	     -6.91730503	     -0.70288823	     -0.75946475	      0.73160547	     -0.83508060	     10.82745801	     26.66382187	    -75.38785748	     -2.68296959	     -9.42747825	     11.62613346	      5.16307789	     12.65229217	     -9.68427288	      0.06175341	     -4.77704305
      1.08000000	     84.11811526	      7.01021443	     -7.05766900	     -0.69272154	     -0.76020229	      0.73290010	     -1.67652571	     11.32033223	     28.79113563	    -75.72414930	     -2.03573388	    -10.08403911	     11.54468431	      5.81397741	     11.39696668	     -8.74396076	      0.04720715	     -4.51181194
      1.09000000	     84.24117028	      6.44504611	     -7.14750580	     -0.68273734	     -0.76079856	      0.73386790	     -2.49074309	     11.70144242	     30.89031464	    -75.82076986	     -0.77907339	    -11.42369569	     11.50212052	      6.23445439	     10.26235349	     -8.08951055	      0.00503749	     -4.20399232
      1.10000000	     84.38877305	      5.85088701	     -7.21714498	     -0.67290143	     -0.76123402	      0.73461734	     -3.31666405	     11.98271717	     32.94169401	    -75.61978886	     -0.01281927	    -12.43948753	     11.40519615	      6.82180627	      9.16391600	     -7.55869832	      0.05000528	     -3.98444380
      1.11000000	     84.53194782	      5.21611461	     -7.25106392	     -0.66320182	     -0.76150786	      0.73511303	     -4.10886993	     12.21031430	     34.93117180	    -75.14605339	      0.33393183	    -12.82832009	     11.30027611	      7.48352740	      8.10534891	     -7.17733862	      0.09360505	     -3.84396255
      1.12000000	     84.61604989	      4.60777861	     -7.25890525	     -0.65360526	     -0.76164808	      0.73530353	     -4.77965525	     12.26456605	     36.85791783	    -74.43323704	      1.29522423	    -13.98634839	     11.27175432	      7.93270105	      7.12136082	     -6.94663030	      0.24179983	     -3.69353897
      1.13000000	     84.69474012	      3.94543623	     -7.25571652	     -0.64408518	     -0.76163753	      0.73526839	     -5.39118202	     12.30268304	     38.70782883	    -73.43152834	      1.50731028	    -14.26615981	     11.23530876	      8.44853838	      6.17804142	     -6.82800664	      0.32667028	     -3.58469022
      1.14000000	     84.66300331	      3.29618830	     -7.27685685	     -0.63463363	     -0.76151934	      0.73493868	     -5.81564014	     12.21808279	     40.53489393	    -72.21873142	      1.87984677	    -14.69748445	     11.31223988	      8.85757150	      5.30685436	     -6.76399973	      0.51540889	     -3.47638265
      1.15000000	     84.65030586	      2.61161409	     -7.24738078	     -0.62516133	     -0.76124295	      0.73439680	     -6.16070043	     12.07387783	     42.16800755	    -70.68855830	      2.11894848	    -14.94775260	     11.36633638	      9.18300356	      4.42987088	     -6.80418289	      0.71451653	     -3.37805318
      1.16000000	     84.59067957	      1.92214495	     -7.21503340	     -0.61563685	     -0.76086111	      0.73363183	     -6.35334016	     11.85525749	     43.66106297	    -68.88058647	      2.28308469	    -15.07659788	     11.46409944	      9.43813843	      3.57088565	     -6.88953793	      0.97773253	     -3.27258379
      1.17000000	     84.50419743	      1.22544817	     -7.18330674	     -0.60599705	     -0.76037623	      0.73267218	     -6.40488492	     11.57111331	     44.97537196	    -66.77589032	      2.34638831	    -15.03751830	     11.58040201	      9.65959676	      2.71836532	     -7.00902373	      1.29847608	     -3.15312849
      1.18000000	     84.39848097	      0.52530682	     -7.15129934	     -0.59617508	     -0.75980134	      0.73154058	     -6.31463062	     11.22498750	     46.07512508	    -64.37352862	      2.29846589	    -14.78571577	     11.70785871	      9.87915146	      1.85613758	     -7.15023089	      1.71042764	     -3.00492012
      1.19000000	     84.29907767	     -0.15977102	     -7.03148720	     -0.58610391	     -0.75914763	      0.73020086	     -6.09162144	     10.81754967	     46.84316124	    -61.70268069	      2.17667712	    -13.78159421	     11.82866197	      9.85616483	      0.96310127	     -7.43935369	      2.61975864	     -2.49058816
      1.20000000	     84.19099566	     -0.86315191	     -6.93689099	     -0.57570459	     -0.75841545	      0.72874378	     -5.74255251	     10.37627699	     47.36899618	    -58.77189361	      2.12871500	    -12.87454493	     11.94347826	     10.02143801	      0.03085329	     -7.68593222	      3.09890994	     -2.13680825
      1.21000000	     84.11051705	     -1.54881089	     -6.82773003	     -0.56490098	     -0.75760231	      0.72715597	     -5.27416752	      9.81447682	     47.57433413	    -55.61678318	      2.07889255	    -12.64245215	     12.01493598	     10.14373739	     -0.92728271	     -7.97288904	      3.21420411	     -2.10214827
      1.22000000	     84.00317499	     -2.24438478	     -6.60931837	     -0.55366888	     -0.75677559	      0.72537791	     -4.66709600	      9.26153665	     47.42575170	    -52.39518205	      1.50262107	    -11.38372787	     12.13954094	     10.38824985	     -2.00459645	     -8.37693893	      3.92377878	     -1.95823961
      1.23000000	     83.91565617	     -2.88939835	     -6.31414229	     -0.54192752	     -0.75591287	      0.72346291	     -3.92964929	      8.53260855	     46.91942468	    -49.15100243	      1.36488963	    -10.95450957	     12.24852306	     10.53981804	     -3.16489733	     -8.84637177	      4.11297535	     -1.88290729
      1.24000000	     83.91328336	     -3.55905008	     -5.98713286	     -0.52965868	     -0.75499441	      0.72146015	     -3.25819525	      7.86084743	     46.17956964	    -45.99047185	      0.78253033	     -9.84101852	     12.25842059	     10.70533300	     -4.32090655	     -9.48794263	      4.73310803	     -1.67868317
      1.25000000	     83.94771375	     -4.16908025	     -5.55011670	     -0.51687025	     -0.75408620	      0.71934615	     -2.54272203	      7.05043819	     45.15350908	    -43.06812753	      0.60410261	     -9.40276406	     12.24609992	     10.77326142	     -5.55058352	    -10.27725160	      4.93918012	     -1.56583704
      1.26000000	     84.06742342	     -4.73509038	     -5.13228191	     -0.50362351	     -0.75317842	      0.71721910	     -1.90847206	      6.15062682	     44.02566953	    -40.45617533	      0.28407252	     -8.96446019	     12.13913809	     10.81899863	     -6.68449048	    -11.26545679	      5.18696546	     -1.45686070
      1.27000000	     84.29726155	     -5.24468768	     -4.74314261	     -0.48996614	     -0.75227159	      0.71514260	     -1.42450396	      5.18424119	     42.85820258	    -38.24099576	     -0.00303059	     -8.67135143	     11.90768670	     10.81105412	     -7.68143556	    -12.48194878	      5.36702756	     -1.34195312
      1.28000000	     84.64604471	     -5.67501510	     -4.43490775	     -0.47598620	     -0.75138614	      0.71319885	     -1.11462949	      4.11753147	     41.73388916	    -36.46291801	     -0.17004559	     -8.53573440	     11.54803302	     10.77121114	     -8.46823590	    -13.93176962	      5.42043531	     -1.26640119
